#!OML:ASF F:\VICON\USERDATA\INSTALL\rory3\rory3.ASF
:FULLY-SPECIFIED
:DEGREES
674
root 0.436495 15.6149 3.66758 11.2976 -44.4855 13.1763
lowerback 5.30784 7.3519 7.5181
upperback 7.35085 9.98137 -3.73932
thorax 6.8547 5.55233 -7.91665
lowerneck -4.18877 -5.39755 -10.1588
upperneck 52.4719 -9.89951 4.9356
head 25.2584 -5.29189 2.98952
rclavicle 1.90833e-014 -4.77083e-015
rhumerus -50.1032 59.6656 -130.619
rradius 90.746
rwrist -17.2889
rhand -15.2428 -36.5484
rfingers 7.12502
rthumb 10.9306 -66.2439
lclavicle 1.90833e-014 -4.77083e-015
lhumerus -19.4552 -77.3686 95.5282
lradius 103.601
lwrist 32.723
lhand -25.9407 -24.6563
lfingers 7.12502
lthumb 0.603006 5.3226
rfemur -64.2877 -4.5179 9.83732
rtibia 86.48
rfoot -12.0552 -17.6925
rtoes -25.1548
lfemur -55.0035 -21.4265 -27.9606
ltibia 59.0813
lfoot -23.2108 -2.32605
ltoes 12.4886
675
root 0.436197 15.6188 3.6707 11.4933 -44.3648 13.0322
lowerback 5.25179 7.25947 7.79201
upperback 7.37193 9.8592 -3.72008
thorax 6.93511 5.51131 -8.04427
lowerneck -4.27196 -5.36128 -10.1736
upperneck 52.5592 -9.75238 4.76147
head 25.3406 -5.2553 2.91989
rclavicle -1.24042e-013 3.18055e-015
rhumerus -50.4608 59.8634 -130.97
rradius 91.0304
rwrist -18.0556
rhand -14.5858 -35.6175
rfingers 7.12502
rthumb 11.5642 -65.2784
lclavicle -1.24042e-013 3.18055e-015
lhumerus -19.5842 -77.1926 95.7377
lradius 103.635
lwrist 32.4745
lhand -26.1098 -23.9414
lfingers 7.12502
lthumb 0.439664 6.03794
rfemur -64.3235 -4.59282 9.96493
rtibia 86.4415
rfoot -11.6965 -18.0947
rtoes -25.5182
lfemur -55.1785 -21.5383 -27.7251
ltibia 59.1144
lfoot -23.3096 -2.27061
ltoes 11.0129
676
root 0.435321 15.6168 3.6715 11.9886 -44.1421 12.5586
lowerback 5.20862 7.21778 8.27247
upperback 7.31442 9.80973 -3.65737
thorax 6.9691 5.51339 -8.24003
lowerneck -4.16381 -5.36914 -10.1278
upperneck 52.4821 -9.76323 4.75164
head 25.1812 -5.24691 2.90149
rclavicle -2.06736e-014 -3.49861e-014
rhumerus -50.4646 59.8882 -131.075
rradius 91.2765
rwrist -18.8856
rhand -14.1162 -33.4069
rfingers 7.12502
rthumb 12.0171 -63.0419
lclavicle -2.06736e-014 -3.49861e-014
lhumerus -19.702 -77.2684 95.9558
lradius 103.571
lwrist 32.0625
lhand -26.2063 -23.6088
lfingers 7.12502
lthumb 0.346507 6.37069
rfemur -64.4561 -4.64922 10.4139
rtibia 86.4201
rfoot -11.229 -18.5648
rtoes -26.3809
lfemur -55.4224 -21.563 -27.3072
ltibia 59.1756
lfoot -23.3203 -2.30728
ltoes 10.4217
677
root 0.434582 15.606 3.67391 12.1094 -43.6717 12.6199
lowerback 5.00396 7.10625 8.47148
upperback 7.34476 9.65402 -3.67905
thorax 7.12832 5.45725 -8.35384
lowerneck -4.14034 -5.40268 -10.19
upperneck 52.4598 -9.87348 4.911
head 25.2141 -5.28588 2.98881
rclavicle 3.97569e-014 -3.65764e-014
rhumerus -50.0871 59.9856 -130.852
rradius 91.5442
rwrist -19.4693
rhand -13.5735 -33.248
rfingers 7.12502
rthumb 12.5403 -62.8517
lclavicle 3.97569e-014 -3.65764e-014
lhumerus -18.9554 -77.445 95.2698
lradius 103.504
lwrist 31.5174
lhand -26.3672 -23.5069
lfingers 7.12502
lthumb 0.191091 6.47275
rfemur -64.6025 -5.0957 10.4944
rtibia 86.4856
rfoot -10.5603 -18.8389
rtoes -27.8778
lfemur -55.5524 -21.8301 -27.3547
ltibia 59.1979
lfoot -23.1586 -2.48468
ltoes 11.4312
678
root 0.420159 15.6049 3.65818 12.0693 -44.6049 12.5692
lowerback 5.33021 7.37494 8.05748
upperback 7.31235 10.0221 -3.69003
thorax 6.90853 5.60475 -8.15916
lowerneck -4.09645 -5.36384 -10.4443
upperneck 52.5478 -9.83134 5.04703
head 25.3722 -5.31975 3.13907
rclavicle -2.22639e-014 -1.59028e-015
rhumerus -50.0984 60.2139 -130.984
rradius 91.836
rwrist -19.7368
rhand -12.6095 -34.5072
rfingers 7.12502
rthumb 13.4696 -64.0516
lclavicle -2.22639e-014 -1.59028e-015
lhumerus -18.654 -77.2657 94.9577
lradius 103.553
lwrist 31.2677
lhand -26.2853 -22.9059
lfingers 7.12502
lthumb 0.27016 7.07371
rfemur -64.7755 -4.08896 10.3942
rtibia 86.4663
rfoot -10.0727 -18.9016
rtoes -28.6849
lfemur -55.4586 -20.8278 -27.6119
ltibia 59.2531
lfoot -23.2666 -2.18042
ltoes 11.7434
679
root 0.412021 15.604 3.64994 12.1522 -45.0903 12.435
lowerback 5.51168 7.39817 7.8887
upperback 7.2377 10.0556 -3.62843
thorax 6.68276 5.59584 -8.03087
lowerneck -3.99284 -5.2368 -10.7532
upperneck 52.6495 -9.56044 5.01134
head 25.433 -5.29894 3.24363
rclavicle -7.95139e-014 5.08889e-014
rhumerus -50.9861 60.5343 -131.908
rradius 92.0891
rwrist -19.9402
rhand -11.7128 -34.6552
rfingers 7.12502
rthumb 14.3337 -64.1404
lclavicle -7.95139e-014 5.08889e-014
lhumerus -19.1669 -76.668 95.4375
lradius 103.629
lwrist 31.4246
lhand -26.0006 -22.4911
lfingers 7.12502
lthumb 0.545139 7.48793
rfemur -64.8681 -3.49121 10.3726
rtibia 86.4919
rfoot -10.7083 -18.6198
rtoes -27.2949
lfemur -55.4513 -20.1894 -27.7923
ltibia 59.3018
lfoot -23.4369 -1.37801
ltoes 9.96145
680
root 0.409744 15.6021 3.64921 12.3075 -45.1716 12.2387
lowerback 5.60412 7.31694 7.98224
upperback 7.19137 9.95065 -3.54564
thorax 6.55806 5.5382 -8.01717
lowerneck -3.85053 -5.03654 -10.6921
upperneck 52.5275 -9.10036 4.73151
head 25.0218 -5.13488 3.14891
rclavicle 4.92986e-014 -1.74931e-014
rhumerus -52.0359 60.6987 -132.884
rradius 92.3201
rwrist -20.0724
rhand -11.3066 -34.2758
rfingers 7.12502
rthumb 14.7251 -63.7328
lclavicle 4.92986e-014 -1.74931e-014
lhumerus -19.733 -76.257 96.0312
lradius 103.578
lwrist 31.3031
lhand -25.9742 -22.7506
lfingers 7.12502
lthumb 0.570653 7.22839
rfemur -64.8761 -3.26528 10.4307
rtibia 86.5269
rfoot -11.7676 -18.1782
rtoes -24.8459
lfemur -55.5151 -19.9524 -27.7642
ltibia 59.3779
lfoot -23.5726 -1.0756
ltoes 8.74295
681
root 0.408469 15.5989 3.64968 12.415 -45.1699 12.1104
lowerback 5.72434 7.27343 8.11278
upperback 7.15132 9.90173 -3.51072
thorax 6.45459 5.51475 -8.07407
lowerneck -3.75545 -4.95026 -10.6707
upperneck 52.3972 -8.9123 4.65174
head 24.7513 -5.06254 3.1285
rclavicle 6.04305e-014 3.33958e-014
rhumerus -52.6819 60.7646 -133.446
rradius 92.5223
rwrist -20.2416
rhand -11.2207 -33.9496
rfingers 7.12502
rthumb 14.8079 -63.4005
lclavicle 6.04305e-014 3.33958e-014
lhumerus -20.2276 -76.242 96.5533
lradius 103.439
lwrist 30.549
lhand -26.6679 -23.2954
lfingers 7.12502
lthumb -0.0993276 6.68435
rfemur -64.8917 -3.15562 10.5016
rtibia 86.5577
rfoot -11.8333 -18.2138
rtoes -24.5573
lfemur -55.5925 -19.8578 -27.6812
ltibia 59.4623
lfoot -23.6547 -1.22205
ltoes 8.74008
682
root 0.404823 15.5944 3.64757 12.5441 -45.287 12.0352
lowerback 5.71561 7.21208 8.15199
upperback 7.1245 9.81965 -3.49572
thorax 6.41669 5.47255 -8.08571
lowerneck -3.77426 -4.83487 -10.9809
upperneck 52.4575 -8.74149 4.82328
head 24.8752 -5.05822 3.33232
rclavicle -8.42847e-014 -1.59028e-015
rhumerus -53.4089 61.0828 -134.154
rradius 92.6846
rwrist -20.5412
rhand -11.2606 -33.1542
rfingers 7.12502
rthumb 14.7695 -62.608
lclavicle -8.42847e-014 -1.59028e-015
lhumerus -20.3561 -75.8072 96.6571
lradius 103.472
lwrist 30.3865
lhand -25.6552 -23.2037
lfingers 7.12502
lthumb 0.878741 6.77423
rfemur -65.0436 -2.98364 10.5763
rtibia 86.5749
rfoot -11.4426 -18.5112
rtoes -25.2964
lfemur -55.7364 -19.7357 -27.6054
ltibia 59.5406
lfoot -23.6786 -1.2146
ltoes 8.89378
683
root 0.400638 15.5893 3.64415 12.5939 -45.4401 12.1112
lowerback 5.82476 7.59306 8.10674
upperback 7.18957 10.3419 -3.70437
thorax 6.57845 5.75162 -8.2588
lowerneck -3.8563 -5.18989 -10.5593
upperneck 52.3503 -9.61222 5.28286
head 25.0174 -5.24082 3.34601
rclavicle 7.63333e-014 -9.54166e-015
rhumerus -51.577 60.4975 -132.668
rradius 92.7614
rwrist -20.9294
rhand -10.7926 -32.7917
rfingers 7.12502
rthumb 15.2203 -62.2118
lclavicle 7.63333e-014 -9.54166e-015
lhumerus -19.121 -76.8252 95.4516
lradius 103.578
lwrist 30.3611
lhand -24.2365 -22.9914
lfingers 7.12502
lthumb 2.24899 6.97654
rfemur -65.2525 -2.83578 10.5132
rtibia 86.6184
rfoot -11.4787 -18.5711
rtoes -25.192
lfemur -55.8969 -19.6017 -27.636
ltibia 59.5933
lfoot -23.6298 -1.35382
ltoes 9.44035
684
root 0.396732 15.5865 3.64443 12.557 -45.5355 12.2983
lowerback 5.77226 7.57878 7.89907
upperback 7.1873 10.3142 -3.71627
thorax 6.55829 5.72435 -8.15384
lowerneck -3.82399 -5.12336 -10.7187
upperneck 52.2997 -9.50728 5.38168
head 24.9599 -5.22763 3.4573
rclavicle -4.77083e-014 -2.06736e-014
rhumerus -52.0587 60.8064 -133.177
rradius 92.9599
rwrist -21.6339
rhand -10.0364 -33.4255
rfingers 7.12502
rthumb 15.9486 -62.7889
lclavicle -4.77083e-014 -2.06736e-014
lhumerus -19.4739 -76.4841 95.83
lradius 103.605
lwrist 30.0761
lhand -23.0278 -22.5362
lfingers 7.12502
lthumb 3.4163 7.41621
rfemur -65.4033 -2.81477 10.3561
rtibia 86.6709
rfoot -11.5929 -18.539
rtoes -25.0789
lfemur -55.9794 -19.5423 -27.7765
ltibia 59.603
lfoot -23.5192 -1.46309
ltoes 9.75483
